# xmcd CD database file
#
# Track frame offsets:
#	150
#	6497
#	42970
#	48004
#	59255
#	84123
#	104046
#	117002
#	141679
#	166356
#	169126
#
# Disc length: 2460 seconds
#
# Revision: 0
# Processed by: cddbd v1.5.1PL2 Copyright (c) Steve Scherf et al.
# Submitted via: CDex 1.51
#
DISCID=91099a0b
DTITLE=NeuzKraft - トーホーコーマダン 〜夜露死苦ますたぁ☆すぱぁく
DYEAR=2005
DGENRE=Game
TTITLE0=Maximum Eiyar
TTITLE1=Taketori Take Off
TTITLE2=Shrine 890
TTITLE3=Deep purple in knowledge
TTITLE4=Master Burner
TTITLE5=Bad Poison Mind
TTITLE6=覚醒 〜she is ungirl？
TTITLE7=Marisar Burner [Magical Sparking Star Style]
TTITLE8=Marisar Burner [Magical Silence Star Style]
TTITLE9=マジで恋しちゃう30秒前
TTITLE10=魔理沙服を脱がさないで☆ [Toho Ages Style]
EXTD=YEAR: 2005
EXTT0=
EXTT1=
EXTT2=
EXTT3=
EXTT4=
EXTT5=
EXTT6=
EXTT7=
EXTT8=
EXTT9=
EXTT10=
PLAYORDER=
